<?xml version="1.0" standalone="no"?>
<!DOCTYPE svg PUBLIC "-//W3C//DTD SVG 20010904//EN"
 "http://www.w3.org/TR/2001/REC-SVG-20010904/DTD/svg10.dtd">
<svg version="1.0" xmlns="http://www.w3.org/2000/svg"
 width="300.000000pt" height="93.000000pt" viewBox="0 0 300.000000 93.000000"
 preserveAspectRatio="xMidYMid meet">
<metadata>
Created by potrace 1.10, written by Peter Selinger 2001-2011
</metadata>
<g transform="translate(0.000000,93.000000) scale(0.050000,-0.050000)"
fill="#1a9578" stroke="none">
<path d="M420 1790 c0 -3 63 -69 140 -147 174 -178 174 -183 -7 -183 -81 0
-190 -6 -242 -13 l-95 -13 157 -79 c170 -86 346 -205 485 -328 l87 -78 -51
-100 c-27 -54 -154 -247 -281 -429 -126 -181 -228 -332 -225 -334 2 -3 48 9
101 25 54 16 135 29 182 29 90 0 108 35 109 204 0 46 14 58 115 96 659 244
578 190 695 456 117 264 111 258 188 193 85 -72 92 -57 45 94 l-39 127 -119 0
c-104 0 -133 -10 -233 -76 -142 -94 -140 -95 -183 141 -20 107 -38 198 -41
202 -6 8 -788 219 -788 213z m630 -197 c96 -25 100 -29 97 -95 -3 -86 -144
-422 -171 -406 -10 7 -17 -4 -15 -25 9 -89 -5 -89 -96 -4 -114 106 -252 203
-415 291 l-120 65 82 1 c45 0 135 5 200 12 l118 11 80 -121 c66 -100 148 -182
98 -97 -79 132 -231 343 -304 418 l-89 94 217 -59 c120 -32 263 -71 318 -85z
m231 -461 c10 -11 61 8 123 46 125 76 130 77 201 29 69 -47 72 -29 -40 -288
-105 -244 -112 -246 -181 -54 -18 52 -40 95 -49 95 -23 0 -20 -10 44 -151 42
-92 52 -133 35 -139 -43 -15 -543 -205 -579 -220 -71 -29 -45 138 48 305 45
83 84 165 86 183 2 17 31 91 64 162 33 72 82 191 108 265 l48 134 37 -174 c21
-96 45 -183 55 -193z m497 86 c33 -109 27 -111 -106 -23 -114 74 -114 75 -58
88 123 27 138 22 164 -65z m-1015 -816 c-13 -73 -25 -154 -28 -182 -4 -42
-207 -96 -268 -71 -2 1 65 99 149 218 164 234 182 238 147 35z"/>
<path d="M2390 1202 c-192 -88 -273 -370 -172 -594 101 -221 521 -271 538 -63
l6 74 -70 -30 c-219 -91 -343 14 -328 276 12 211 120 284 308 206 75 -32 73
-33 96 73 21 94 -220 131 -378 58z"/>
<path d="M2880 740 l0 -320 82 0 82 0 -7 105 c-10 159 56 161 144 6 52 -92 72
-111 116 -110 125 4 131 21 44 138 -80 107 -81 109 -44 150 179 196 72 351
-242 351 l-175 0 0 -320z m309 168 c37 -37 25 -104 -26 -144 -34 -26 -137 -26
-128 1 3 8 5 51 5 95 0 90 81 116 149 48z"/>
<path d="M3578 756 c-60 -168 -111 -312 -115 -320 -3 -9 30 -16 74 -16 77 0
82 4 94 71 l14 71 122 -6 c119 -6 123 -8 133 -66 9 -55 18 -61 97 -66 66 -5
85 0 76 20 -6 14 -53 159 -105 321 l-95 295 -94 0 -94 0 -107 -304z m244 34
c38 -123 35 -130 -52 -130 -88 0 -89 5 -42 139 47 136 49 136 94 -9z"/>
<path d="M4194 745 l3 -315 77 0 76 0 -7 115 -7 115 113 0 114 0 -7 64 c-6 64
-6 64 -111 59 l-105 -6 0 84 0 85 130 -12 c95 -9 130 -6 130 12 0 13 6 44 13
69 12 45 10 45 -206 45 l-217 0 4 -315z"/>
<path d="M4700 740 l0 -320 190 0 190 0 0 70 0 70 -118 0 -118 0 11 250 11
250 -83 0 -83 0 0 -320z"/>
<path d="M5310 1041 c-147 -61 -217 -305 -137 -475 98 -206 434 -197 543 14
150 289 -110 584 -406 461z m235 -136 c66 -74 67 -270 2 -335 -71 -72 -213
-23 -239 83 -52 204 118 385 237 252z"/>
</g>
</svg>
